<?xml version="1.0" standalone="no"?>
<!DOCTYPE svg PUBLIC "-//W3C//DTD SVG 20010904//EN"
 "http://www.w3.org/TR/2001/REC-SVG-20010904/DTD/svg10.dtd">
<svg version="1.0" xmlns="http://www.w3.org/2000/svg"
 width="2440.000000pt" height="2440.000000pt" viewBox="0 0 2440.000000 2440.000000"
 preserveAspectRatio="xMidYMid meet">
<metadata>
Created by potrace 1.11, written by Peter Selinger 2001-2013
</metadata>
<g transform="translate(0.000000,2440.000000) scale(0.100000,-0.100000)"
fill="#000000" stroke="none">
<path d="M2 15040 l3 -290 2837 -2838 2836 -2837 1351 0 1350 0 1907 1908
1906 1908 1915 -1916 1915 -1915 1343 0 1343 0 2846 2847 2846 2848 0 287 0
288 -1735 0 -1735 0 -1457 -1455 c-802 -800 -1458 -1455 -1458 -1455 0 0 -203
-202 -449 -449 l-449 -448 -431 428 c-237 235 -653 647 -923 916 -771 764
-2033 2016 -2269 2251 l-214 212 -1076 0 -1076 0 -297 -295 c-163 -162 -296
-295 -296 -295 0 0 -342 -340 -760 -756 -2445 -2430 -2478 -2463 -2494 -2454
-9 5 -868 862 -1910 1904 l-1894 1896 -1739 0 -1738 0 2 -290z"/>
<path d="M5398 15323 c-3 -7 -2 -544 1 -565 1 -7 284 -293 1393 -1405 270
-271 495 -493 499 -493 5 0 432 423 948 939 l939 940 -296 295 -296 296 -1592
0 c-876 0 -1594 -3 -1596 -7z"/>
<path d="M15526 15034 l-296 -296 943 -944 943 -944 905 909 c497 500 924 929
948 954 l43 45 0 248 c-1 137 -1 266 -1 287 l-1 37 -1594 0 -1593 0 -297 -296z"/>
<path d="M11972 11308 c-289 -292 -952 -963 -952 -963 0 0 -168 -171 -373
-379 l-373 -378 0 -264 0 -264 1926 0 1927 0 -1 264 0 264 -967 972 -966 971
-221 -223z"/>
</g>
</svg>
